
      <svg data-logo="logo" xmlns="http://www.w3.org/2000/svg" viewBox="0 0 223.4199981689453 41">
        <g id="logogram" transform="
    translate(0, 0.5)
    rotate(0 20 20)
    
  "><path d="M20 0C25.3043 4.00466e-07 30.3919 2.10669 34.1426 5.85742C34.8157 6.53058 35.4354 7.24719 36 8H20C16.8174 8 13.7651 9.26421 11.5146 11.5146C9.26421 13.7651 8 16.8174 8 20H20L36.9102 9.31934C38.1656 11.3074 39.0611 13.5027 39.5547 15.8027L32 20H40L39.9941 20.4971C39.8669 25.6213 37.776 30.5092 34.1426 34.1426C30.3919 37.8933 25.3043 40 20 40C14.6957 40 9.60815 37.8933 5.85742 34.1426C5.18426 33.4694 4.56459 32.7528 4 32H20C23.1826 32 26.2349 30.7358 28.4854 28.4854C30.5952 26.3755 31.8383 23.5608 31.9854 20.5947L32 20H20L3.08984 30.6787C1.83452 28.6906 0.941002 26.4951 0.447266 24.1953L8 20H0C8.00931e-07 14.6957 2.1067 9.60815 5.85742 5.85742C9.60815 2.1067 14.6957 -5.79361e-10 20 0Z" fill="#0094F7"/></g>
        <g id="logotype" transform="translate(46, 7.31201171875)"><path fill="#111111" d="M13.52 26L8.31 26L8.31 0.54L18.24 0.54Q21.14 0.54 23.18 1.56Q25.21 2.59 26.28 4.45Q27.35 6.31 27.35 8.82L27.35 8.82Q27.35 11.34 26.26 13.16Q25.17 14.98 23.12 15.94Q21.06 16.91 18.12 16.91L18.12 16.91L11.38 16.91L11.38 12.69L17.28 12.69Q18.89 12.69 19.91 12.25Q20.94 11.82 21.45 10.95Q21.96 10.09 21.96 8.82L21.96 8.82Q21.96 7.53 21.45 6.65Q20.94 5.77 19.90 5.30Q18.87 4.84 17.26 4.84L17.26 4.84L13.52 4.84L13.52 26ZM28.25 26L22.47 26L16.27 14.41L21.93 14.41L28.25 26ZM37.53 26.38L37.53 26.38Q34.61 26.38 32.49 25.18Q30.37 23.98 29.23 21.78Q28.10 19.57 28.10 16.55L28.10 16.55Q28.10 13.59 29.22 11.37Q30.35 9.15 32.42 7.90Q34.49 6.65 37.27 6.65L37.27 6.65Q39.15 6.65 40.78 7.25Q42.40 7.85 43.63 9.06Q44.86 10.26 45.55 12.07Q46.24 13.88 46.24 16.34L46.24 16.34L46.24 17.78L30.20 17.78L30.20 14.57L43.73 14.57L41.34 15.42Q41.34 13.93 40.89 12.83Q40.43 11.73 39.54 11.12Q38.64 10.52 37.31 10.52L37.31 10.52Q35.99 10.52 35.06 11.13Q34.13 11.75 33.65 12.80Q33.17 13.85 33.17 15.20L33.17 15.20L33.17 17.47Q33.17 19.13 33.73 20.26Q34.28 21.39 35.28 21.95Q36.28 22.51 37.61 22.51L37.61 22.51Q38.52 22.51 39.25 22.26Q39.99 22.00 40.51 21.50Q41.03 20.99 41.31 20.26L41.31 20.26L45.95 21.13Q45.49 22.70 44.35 23.89Q43.20 25.08 41.49 25.73Q39.77 26.38 37.53 26.38ZM55.06 26.38L55.06 26.38Q52.75 26.38 50.98 25.72Q49.20 25.06 48.07 23.80Q46.94 22.55 46.62 20.77L46.62 20.77L51.39 19.95Q51.76 21.28 52.70 21.95Q53.64 22.62 55.21 22.62L55.21 22.62Q56.67 22.62 57.52 22.06Q58.38 21.51 58.38 20.65L58.38 20.65Q58.38 19.90 57.77 19.42Q57.16 18.94 55.92 18.69L55.92 18.69L52.62 18.00Q49.85 17.44 48.48 16.08Q47.11 14.72 47.11 12.58L47.11 12.58Q47.11 10.74 48.12 9.41Q49.13 8.09 50.93 7.37Q52.72 6.65 55.15 6.65L55.15 6.65Q57.40 6.65 59.06 7.28Q60.72 7.90 61.74 9.05Q62.77 10.19 63.11 11.75L63.11 11.75L58.56 12.55Q58.27 11.58 57.44 10.95Q56.62 10.33 55.21 10.33L55.21 10.33Q53.95 10.33 53.10 10.86Q52.24 11.39 52.24 12.26L52.24 12.26Q52.24 12.99 52.80 13.49Q53.35 13.99 54.70 14.26L54.70 14.26L58.14 14.94Q60.91 15.51 62.26 16.78Q63.61 18.05 63.61 20.10L63.61 20.10Q63.61 21.98 62.51 23.39Q61.42 24.80 59.50 25.59Q57.57 26.38 55.06 26.38ZM73.34 26.38L73.34 26.38Q70.47 26.38 68.37 25.14Q66.27 23.90 65.13 21.68Q64.00 19.47 64.00 16.53L64.00 16.53Q64.00 13.56 65.13 11.35Q66.27 9.13 68.37 7.89Q70.47 6.65 73.34 6.65L73.34 6.65Q76.23 6.65 78.33 7.89Q80.42 9.13 81.56 11.35Q82.69 13.56 82.69 16.53L82.69 16.53Q82.69 19.47 81.56 21.68Q80.42 23.90 78.33 25.14Q76.23 26.38 73.34 26.38ZM73.34 22.34L73.34 22.34Q74.71 22.34 75.63 21.58Q76.56 20.82 77.02 19.50Q77.48 18.17 77.48 16.52L77.48 16.52Q77.48 14.82 77.02 13.51Q76.56 12.19 75.63 11.44Q74.71 10.69 73.34 10.69L73.34 10.69Q71.98 10.69 71.06 11.44Q70.15 12.19 69.69 13.51Q69.23 14.82 69.23 16.52L69.23 16.52Q69.23 18.17 69.69 19.50Q70.15 20.82 71.06 21.58Q71.98 22.34 73.34 22.34ZM89.12 14.94L89.12 14.94L89.12 26L83.99 26L83.99 6.89L88.83 6.89L88.91 11.66L88.60 11.66Q89.36 9.27 90.89 7.96Q92.42 6.65 94.84 6.65L94.84 6.65Q96.82 6.65 98.29 7.52Q99.76 8.38 100.58 10.00Q101.40 11.61 101.40 13.85L101.40 13.85L101.40 26L96.28 26L96.28 14.74Q96.28 12.96 95.36 11.95Q94.45 10.94 92.83 10.94L92.83 10.94Q91.75 10.94 90.90 11.41Q90.06 11.88 89.59 12.77Q89.12 13.66 89.12 14.94ZM108.84 26.38L108.84 26.38Q107.02 26.38 105.58 25.74Q104.14 25.09 103.31 23.82Q102.48 22.55 102.48 20.65L102.48 20.65Q102.48 19.06 103.07 17.98Q103.66 16.91 104.68 16.26Q105.69 15.61 106.98 15.27Q108.27 14.93 109.69 14.79L109.69 14.79Q111.35 14.62 112.37 14.47Q113.38 14.33 113.85 14.01Q114.32 13.70 114.32 13.08L114.32 13.08L114.32 12.99Q114.32 12.17 113.98 11.61Q113.64 11.05 112.97 10.75Q112.31 10.45 111.33 10.45L111.33 10.45Q110.34 10.45 109.61 10.75Q108.87 11.05 108.41 11.54Q107.95 12.04 107.73 12.65L107.73 12.65L103.03 11.87Q103.52 10.21 104.67 9.05Q105.81 7.88 107.51 7.27Q109.21 6.65 111.33 6.65L111.33 6.65Q112.89 6.65 114.34 7.02Q115.79 7.39 116.95 8.16Q118.10 8.93 118.77 10.16Q119.45 11.39 119.45 13.13L119.45 13.13L119.45 26L114.60 26L114.60 23.35L114.42 23.35Q113.96 24.24 113.19 24.91Q112.43 25.59 111.34 25.98Q110.25 26.38 108.84 26.38ZM110.29 22.77L110.29 22.77Q111.50 22.77 112.42 22.29Q113.33 21.81 113.84 20.99Q114.36 20.17 114.36 19.16L114.36 19.16L114.36 17.10Q114.13 17.27 113.67 17.40Q113.21 17.54 112.65 17.64Q112.08 17.75 111.54 17.83Q110.99 17.92 110.56 17.97L110.56 17.97Q109.62 18.10 108.90 18.41Q108.19 18.72 107.79 19.22Q107.40 19.73 107.40 20.51L107.40 20.51Q107.40 21.25 107.78 21.75Q108.15 22.26 108.79 22.51Q109.43 22.77 110.29 22.77ZM126.68 14.94L126.68 14.94L126.68 26L121.55 26L121.55 6.89L126.39 6.89L126.47 11.66L126.16 11.66Q126.92 9.27 128.44 7.96Q129.97 6.65 132.40 6.65L132.40 6.65Q134.38 6.65 135.85 7.52Q137.32 8.38 138.14 10.00Q138.96 11.61 138.96 13.85L138.96 13.85L138.96 26L133.84 26L133.84 14.74Q133.84 12.96 132.92 11.95Q132.01 10.94 130.38 10.94L130.38 10.94Q129.31 10.94 128.46 11.41Q127.62 11.88 127.15 12.77Q126.68 13.66 126.68 14.94ZM149.61 26.38L149.61 26.38Q146.72 26.38 144.63 25.14Q142.53 23.90 141.40 21.68Q140.26 19.47 140.26 16.53L140.26 16.53Q140.26 13.56 141.40 11.35Q142.53 9.13 144.63 7.89Q146.72 6.65 149.61 6.65L149.61 6.65Q151.30 6.65 152.74 7.10Q154.17 7.54 155.28 8.36Q156.39 9.18 157.11 10.36Q157.83 11.54 158.10 13.01L158.10 13.01L153.33 13.90Q153.18 13.15 152.86 12.56Q152.53 11.97 152.07 11.55Q151.61 11.13 151.00 10.91Q150.39 10.69 149.66 10.69L149.66 10.69Q148.29 10.69 147.36 11.42Q146.43 12.16 145.96 13.47Q145.49 14.79 145.49 16.52L145.49 16.52Q145.49 18.22 145.96 19.53Q146.43 20.84 147.36 21.59Q148.29 22.34 149.66 22.34L149.66 22.34Q150.39 22.34 151.01 22.11Q151.63 21.88 152.10 21.45Q152.58 21.01 152.91 20.39Q153.23 19.78 153.37 19.01L153.37 19.01L158.14 19.88Q157.86 21.40 157.15 22.59Q156.43 23.78 155.32 24.63Q154.21 25.49 152.76 25.93Q151.32 26.38 149.61 26.38ZM168.01 26.38L168.01 26.38Q165.09 26.38 162.97 25.18Q160.85 23.98 159.72 21.78Q158.58 19.57 158.58 16.55L158.58 16.55Q158.58 13.59 159.71 11.37Q160.83 9.15 162.90 7.90Q164.97 6.65 167.76 6.65L167.76 6.65Q169.64 6.65 171.26 7.25Q172.88 7.85 174.11 9.06Q175.34 10.26 176.04 12.07Q176.73 13.88 176.73 16.34L176.73 16.34L176.73 17.78L160.68 17.78L160.68 14.57L174.22 14.57L171.82 15.42Q171.82 13.93 171.37 12.83Q170.92 11.73 170.02 11.12Q169.12 10.52 167.79 10.52L167.79 10.52Q166.47 10.52 165.54 11.13Q164.61 11.75 164.13 12.80Q163.65 13.85 163.65 15.20L163.65 15.20L163.65 17.47Q163.65 19.13 164.21 20.26Q164.77 21.39 165.77 21.95Q166.76 22.51 168.10 22.51L168.10 22.51Q169.00 22.51 169.74 22.26Q170.47 22.00 170.99 21.50Q171.52 20.99 171.79 20.26L171.79 20.26L176.44 21.13Q175.98 22.70 174.83 23.89Q173.69 25.08 171.97 25.73Q170.25 26.38 168.01 26.38Z"/></g>
        
      </svg>
    